  0
SECTION
  2
HEADER
  9
$EXTMIN
 10
-61.9679999999998
 20
-180
  9
$EXTMAX
 10
872.5
 20
211.12627804778
  9
$LIMMIN
 10
-2.95275590551181
 20
-2.95275590551181
  9
$LIMMAX
 10
20.4330708661417
 20
13.5826771653543
  9
$LUNITS
 70
2
  9
$LUPREC
 70
2
  9
$AUNITS
 70
0
  9
$AUPREC
 70
2
  0
ENDSEC
  0
SECTION
  2
TABLES
  0
TABLE
  2
LTYPE
 70
9
  0
LTYPE
  2
CONTINUOUS
  3
___________________________
 70
64
 72
65
 73
0
 40
0
  0
LTYPE
  2
HIDDEN
  3
_ _ _ _ _ _ _ _ _ _ _ _ _ _ 
 70
64
 72
65
 73
2
 40
9.525
 49
6.35
 49
-3.175
  0
LTYPE
  2
DASHED
  3
__ __ __ __ __ __ __ __ __ 
 70
64
 72
65
 73
2
 40
19.05
 49
12.7
 49
-6.35
  0
LTYPE
  2
CENTER
  3
____ _ ____ _ ____ _ ____ _ 
 70
64
 72
65
 73
4
 40
50.8
 49
31.75
 49
-6.35
 49
6.35
 49
-6.35
  0
LTYPE
  2
PHANTOM
  3
_____ _ _ _____ _ _ _____ _ _ 
 70
64
 72
65
 73
6
 40
63.5
 49
31.75
 49
-6.35
 49
6.35
 49
-6.35
 49
6.35
 49
-6.35
  0
LTYPE
  2
DOT
  3
...........................
 70
64
 72
65
 73
2
 40
6.35
 49
0
 49
-6.35
  0
LTYPE
  2
DASHDOT
  3
__ . __ . __ . __ . __ . __ . 
 70
64
 72
65
 73
4
 40
25.4
 49
12.7
 49
-6.35
 49
0
 49
-6.35
  0
LTYPE
  2
DIVIDE
  3
__ . . __ . . __ . . __ . . 
 70
64
 72
65
 73
6
 40
31.75
 49
12.7
 49
-6.35
 49
0
 49
-6.35
 49
0
 49
-6.35
  0
LTYPE
  2
BORDER
  3
__ __ . __ __ . __ __ . __ __ . 
 70
64
 72
65
 73
6
 40
44.45
 49
12.7
 49
-6.35
 49
12.7
 49
-6.35
 49
0
 49
-6.35
  0
ENDTAB
  0
TABLE
  2
LAYER
 70
2
  0
LAYER
  2
Dimensions
 62
16
  6
CONTINUOUS
 70
0
  0
LAYER
  2
Drawing
 62
8
  6
CONTINUOUS
 70
0
  0
ENDTAB
  0
TABLE
  2
STYLE
 70
4
  0
STYLE
  2
STANDARD
 70
0
 40
0
 50
0
 71
0
 41
0
 42
0
  3
TXT
  0
STYLE
  2
ITALIC
 70
0
 40
0
 50
0
 71
0
 41
0
 42
0
  3
ITALIC
  0
STYLE
  2
SIMPLEX
 70
0
 40
0
 50
0
 71
0
 41
0
 42
0
  3
SIMPLEX
  0
STYLE
  2
COMPLEX
 70
0
 40
0
 50
0
 71
0
 41
0
 42
0
  3
COMPLEX
  0
ENDTAB
  0
ENDSEC
  0
SECTION
  2
BLOCKS
  0
BLOCK
  8
0
  2
CROSS
 70
0
 10
0
 20
0
  0
LINE
  8
Dimensions
  6
DOT
 62
256
 10
-12.7
 20
0
 11
12.7
 21
0
  0
LINE
  8
Dimensions
  6
DOT
 62
256
 10
0
 20
12.7
 11
0
 21
-12.7
  0
ENDBLK
  0
BLOCK
  8
0
  2
XMARK
 70
0
 10
0
 20
0
  0
LINE
  8
Dimensions
  6
DOT
 62
256
 10
-12.7
 20
12.7
 11
12.7
 21
-12.7
  0
LINE
  8
Dimensions
  6
DOT
 62
256
 10
-322.58
 20
-12.7
 11
322.58
 21
12.7
  0
ENDBLK
  0
BLOCK
  8
0
  2
BOX
 70
0
 10
0
 20
0
  0
LINE
  8
Dimensions
  6
DOT
 62
256
 10
12.7
 20
-12.7
 11
12.7
 21
12.7
  0
LINE
  8
Dimensions
  6
DOT
 62
256
 10
322.58
 20
12.7
 11
-12.7
 21
322.58
  0
LINE
  8
Dimensions
  6
DOT
 62
256
 10
-12.7
 20
322.58
 11
-322.58
 21
-12.7
  0
LINE
  8
Dimensions
  6
DOT
 62
256
 10
-322.58
 20
-12.7
 11
12.7
 21
-322.58
  0
ENDBLK
  0
BLOCK
  8
0
  2
DIAMOND
 70
0
 10
0
 20
0
  0
LINE
  8
Dimensions
  6
DOT
 62
256
 10
12.7
 20
0
 11
0
 21
12.7
  0
LINE
  8
Dimensions
  6
DOT
 62
256
 10
0
 20
322.58
 11
-12.7
 21
0
  0
LINE
  8
Dimensions
  6
DOT
 62
256
 10
-322.58
 20
0
 11
0
 21
-12.7
  0
LINE
  8
Dimensions
  6
DOT
 62
256
 10
0
 20
-322.58
 11
12.7
 21
0
  0
ENDBLK
  0
BLOCK
  8
0
  2
CIRCLE
 70
0
 10
0
 20
0
  0
CIRCLE
  8
Dimensions
  6
DOT
 62
256
 10
0
 20
0
 40
12.7
  0
ENDBLK
  0
BLOCK
  8
0
  2
FBOX
 70
0
 10
0
 20
0
  0
SOLID
  8
Dimensions
  6
DOT
 62
256
 10
12.7
 20
-12.7
 11
12.7
 21
12.7
 12
-12.7
 22
-12.7
 13
-12.7
 23
12.7
  0
ENDBLK
  0
BLOCK
  8
0
  2
FDIAMOND
 70
0
 10
0
 20
0
  0
SOLID
  8
Dimensions
  6
DOT
 62
256
 10
12.7
 20
0
 11
0
 21
12.7
 12
0
 22
-12.7
 13
-12.7
 23
0
  0
ENDBLK
  0
BLOCK
  8
0
  2
FCIRCLE
 70
0
 10
0
 20
0
  0
POLYLINE
  8
Dimensions
  6
DOT
 62
256
 70
1
 66
1
  0
VERTEX
  8
Dimensions
  6
DOT
 62
256
 10
12.7
 20
0
  0
VERTEX
  8
Dimensions
  6
DOT
 62
256
 10
12.6388460287369
 20
1.24481768218542
  0
VERTEX
  8
Dimensions
  6
DOT
 62
256
 10
12.455973061121
 20
2.47764708960483
  0
VERTEX
  8
Dimensions
  6
DOT
 62
256
 10
12.1531422637991
 20
3.68661540113167
  0
VERTEX
  8
Dimensions
  6
DOT
 62
256
 10
11.7332700628933
 20
4.86007959103664
  0
VERTEX
  8
Dimensions
  6
DOT
 62
256
 10
11.2004000572241
 20
5.98673855769017
  0
VERTEX
  8
Dimensions
  6
DOT
 62
256
 10
10.5596640762423
 20
7.05574195934895
  0
VERTEX
  8
Dimensions
  6
DOT
 62
256
 10
9.81723275770676
 20
8.0567947088783
  0
VERTEX
  8
Dimensions
  6
DOT
 62
256
 10
8.98025612106915
 20
8.98025612106915
  0
VERTEX
  8
Dimensions
  6
DOT
 62
256
 10
8.0567947088783
 20
9.81723275770676
  0
VERTEX
  8
Dimensions
  6
DOT
 62
256
 10
7.05574195934895
 20
10.5596640762423
  0
VERTEX
  8
Dimensions
  6
DOT
 62
256
 10
5.98673855769017
 20
11.2004000572241
  0
VERTEX
  8
Dimensions
  6
DOT
 62
256
 10
4.86007959103664
 20
11.7332700628933
  0
VERTEX
  8
Dimensions
  6
DOT
 62
256
 10
3.68661540113167
 20
12.1531422637991
  0
VERTEX
  8
Dimensions
  6
DOT
 62
256
 10
2.47764708960483
 20
12.455973061121
  0
VERTEX
  8
Dimensions
  6
DOT
 62
256
 10
1.24481768218542
 20
12.6388460287369
  0
VERTEX
  8
Dimensions
  6
DOT
 62
256
 10
-0
 20
12.7
  0
VERTEX
  8
Dimensions
  6
DOT
 62
256
 10
-1.24481768218543
 20
12.6388460287369
  0
VERTEX
  8
Dimensions
  6
DOT
 62
256
 10
-2.47764708960484
 20
12.455973061121
  0
VERTEX
  8
Dimensions
  6
DOT
 62
256
 10
-3.68661540113168
 20
12.153142263799
  0
VERTEX
  8
Dimensions
  6
DOT
 62
256
 10
-4.86007959103665
 20
11.7332700628933
  0
VERTEX
  8
Dimensions
  6
DOT
 62
256
 10
-5.98673855769018
 20
11.2004000572241
  0
VERTEX
  8
Dimensions
  6
DOT
 62
256
 10
-7.05574195934896
 20
10.5596640762423
  0
VERTEX
  8
Dimensions
  6
DOT
 62
256
 10
-8.05679470887831
 20
9.81723275770675
  0
VERTEX
  8
Dimensions
  6
DOT
 62
256
 10
-8.98025612106916
 20
8.98025612106914
  0
VERTEX
  8
Dimensions
  6
DOT
 62
256
 10
-9.81723275770677
 20
8.05679470887828
  0
VERTEX
  8
Dimensions
  6
DOT
 62
256
 10
-10.5596640762423
 20
7.05574195934893
  0
VERTEX
  8
Dimensions
  6
DOT
 62
256
 10
-11.2004000572241
 20
5.98673855769015
  0
VERTEX
  8
Dimensions
  6
DOT
 62
256
 10
-11.7332700628934
 20
4.86007959103662
  0
VERTEX
  8
Dimensions
  6
DOT
 62
256
 10
-12.1531422637991
 20
3.68661540113165
  0
VERTEX
  8
Dimensions
  6
DOT
 62
256
 10
-12.455973061121
 20
2.47764708960481
  0
VERTEX
  8
Dimensions
  6
DOT
 62
256
 10
-12.6388460287369
 20
1.24481768218539
  0
VERTEX
  8
Dimensions
  6
DOT
 62
256
 10
-12.7
 20
-0.00000000000003
  0
VERTEX
  8
Dimensions
  6
DOT
 62
256
 10
-12.6388460287369
 20
-1.24481768218545
  0
VERTEX
  8
Dimensions
  6
DOT
 62
256
 10
-12.455973061121
 20
-2.47764708960486
  0
VERTEX
  8
Dimensions
  6
DOT
 62
256
 10
-12.153142263799
 20
-3.6866154011317
  0
VERTEX
  8
Dimensions
  6
DOT
 62
256
 10
-11.7332700628933
 20
-4.86007959103667
  0
VERTEX
  8
Dimensions
  6
DOT
 62
256
 10
-11.2004000572241
 20
-5.9867385576902
  0
VERTEX
  8
Dimensions
  6
DOT
 62
256
 10
-10.5596640762423
 20
-7.05574195934898
  0
VERTEX
  8
Dimensions
  6
DOT
 62
256
 10
-9.81723275770674
 20
-8.05679470887832
  0
VERTEX
  8
Dimensions
  6
DOT
 62
256
 10
-8.98025612106913
 20
-8.98025612106918
  0
VERTEX
  8
Dimensions
  6
DOT
 62
256
 10
-8.05679470887827
 20
-9.81723275770678
  0
VERTEX
  8
Dimensions
  6
DOT
 62
256
 10
-7.05574195934892
 20
-10.5596640762423
  0
VERTEX
  8
Dimensions
  6
DOT
 62
256
 10
-5.98673855769014
 20
-11.2004000572241
  0
VERTEX
  8
Dimensions
  6
DOT
 62
256
 10
-4.86007959103662
 20
-11.7332700628934
  0
VERTEX
  8
Dimensions
  6
DOT
 62
256
 10
-3.68661540113165
 20
-12.1531422637991
  0
VERTEX
  8
Dimensions
  6
DOT
 62
256
 10
-2.47764708960481
 20
-12.455973061121
  0
VERTEX
  8
Dimensions
  6
DOT
 62
256
 10
-1.24481768218541
 20
-12.6388460287369
  0
VERTEX
  8
Dimensions
  6
DOT
 62
256
 10
0.00000000000001
 20
-12.7
  0
VERTEX
  8
Dimensions
  6
DOT
 62
256
 10
1.24481768218542
 20
-12.6388460287369
  0
VERTEX
  8
Dimensions
  6
DOT
 62
256
 10
2.47764708960483
 20
-12.455973061121
  0
VERTEX
  8
Dimensions
  6
DOT
 62
256
 10
3.68661540113167
 20
-12.1531422637991
  0
VERTEX
  8
Dimensions
  6
DOT
 62
256
 10
4.86007959103663
 20
-11.7332700628933
  0
VERTEX
  8
Dimensions
  6
DOT
 62
256
 10
5.98673855769016
 20
-11.2004000572241
  0
VERTEX
  8
Dimensions
  6
DOT
 62
256
 10
7.05574195934893
 20
-10.5596640762423
  0
VERTEX
  8
Dimensions
  6
DOT
 62
256
 10
8.05679470887828
 20
-9.81723275770677
  0
VERTEX
  8
Dimensions
  6
DOT
 62
256
 10
8.98025612106914
 20
-8.98025612106917
  0
VERTEX
  8
Dimensions
  6
DOT
 62
256
 10
9.81723275770674
 20
-8.05679470887832
  0
VERTEX
  8
Dimensions
  6
DOT
 62
256
 10
10.5596640762423
 20
-7.05574195934898
  0
VERTEX
  8
Dimensions
  6
DOT
 62
256
 10
11.2004000572241
 20
-5.9867385576902
  0
VERTEX
  8
Dimensions
  6
DOT
 62
256
 10
11.7332700628933
 20
-4.86007959103668
  0
VERTEX
  8
Dimensions
  6
DOT
 62
256
 10
12.153142263799
 20
-3.68661540113172
  0
VERTEX
  8
Dimensions
  6
DOT
 62
256
 10
12.455973061121
 20
-2.47764708960488
  0
VERTEX
  8
Dimensions
  6
DOT
 62
256
 10
12.6388460287369
 20
-1.24481768218547
  0
SEQEND
  0
ENDBLK
  0
BLOCK
  8
0
  2
OMEGA
 70
0
 10
0
 20
0
  0
ARC
  8
Dimensions
  6
DOT
 62
256
 10
0
 20
9.525
 40
15.875
 50
323.130102446614
 51
216.869910848931
  0
ENDBLK
  0
BLOCK
  8
0
  2
HEMI
 70
0
 10
0
 20
0
  0
LINE
  8
Dimensions
  6
DOT
 62
256
 10
-12.7
 20
0
 11
-12.7
 21
12.7
  0
LINE
  8
Dimensions
  6
DOT
 62
256
 10
12.7
 20
0
 11
12.7
 21
322.58
  0
ARC
  8
Dimensions
  6
DOT
 62
256
 10
0
 20
12.7
 40
12.7
 50
0
 51
180
  0
ENDBLK
  0
BLOCK
  8
0
  2
BREAK
 70
0
 10
0
 20
0
  0
LINE
  8
Dimensions
  6
DOT
 62
256
 10
-12.7
 20
0
 11
0
 21
25.4
  0
LINE
  8
Dimensions
  6
DOT
 62
256
 10
0
 20
25.4
 11
0
 21
-25.4
  0
LINE
  8
Dimensions
  6
DOT
 62
256
 10
0
 20
-25.4
 11
12.7
 21
0
  0
ENDBLK
  0
BLOCK
  8
0
  2
MEDARROW
 70
0
 10
0
 20
0
  0
SOLID
  8
Dimensions
  6
DOT
 62
256
 10
0
 20
0
 11
50.8
 21
-12.7
 12
50.8
 22
12.7
 13
50.8
 23
12.7
  0
ENDBLK
  0
BLOCK
  8
0
  2
LONGARROW
 70
0
 10
0
 20
0
  0
SOLID
  8
Dimensions
  6
DOT
 62
256
 10
0
 20
0
 11
50.8
 21
-6.35
 12
50.8
 22
6.35
 13
50.8
 23
6.35
  0
ENDBLK
  0
BLOCK
  8
0
  2
ARROW
 70
0
 10
0
 20
0
  0
SOLID
  8
Dimensions
  6
DOT
 62
256
 10
0
 20
0
 11
12.7
 21
12.7
 12
12.7
 22
-12.7
 13
12.7
 23
-12.7
  0
ENDBLK
  0
BLOCK
  8
0
  2
SHORTARROW
 70
0
 10
0
 20
0
  0
LINE
  8
Dimensions
  6
DOT
 62
256
 10
0
 20
0
 11
12.7
 21
12.7
  0
LINE
  8
Dimensions
  6
DOT
 62
256
 10
0
 20
0
 11
322.58
 21
-12.7
  0
ENDBLK
  0
BLOCK
  8
0
  2
CROSSHAIR
 70
0
 10
0
 20
0
  0
LINE
  8
Dimensions
  6
DOT
 62
256
 10
-25.4
 20
0
 11
25.4
 21
0
  0
LINE
  8
Dimensions
  6
DOT
 62
256
 10
0
 20
25.4
 11
0
 21
-25.4
  0
CIRCLE
  8
Dimensions
  6
DOT
 62
256
 10
0
 20
0
 40
12.7
  0
ENDBLK
  0
BLOCK
  8
0
  2
OPENARROW
 70
0
 10
0
 20
0
  0
LINE
  8
Dimensions
  6
DOT
 62
256
 10
0
 20
0
 11
50.8
 21
12.7
  0
LINE
  8
Dimensions
  6
DOT
 62
256
 10
0
 20
0
 11
1290.32
 21
-12.7
  0
ENDBLK
  0
BLOCK
  8
0
  2
SLASH
 70
0
 10
0
 20
0
  0
LINE
  8
Dimensions
  6
DOT
 62
256
 10
-12.7
 20
-12.7
 11
12.7
 21
12.7
  0
ENDBLK
  0
BLOCK
  8
0
  2
BACKSLASH
 70
0
 10
0
 20
0
  0
LINE
  8
Dimensions
  6
DOT
 62
256
 10
-12.7
 20
12.7
 11
12.7
 21
-12.7
  0
ENDBLK
  0
BLOCK
  8
0
  2
HEXAGON
 70
0
 10
0
 20
0
  0
POLYLINE
  8
Dimensions
  6
DOT
 62
256
 70
1
 66
1
  0
VERTEX
  8
Dimensions
  6
DOT
 62
256
 10
12.7
 20
0
  0
VERTEX
  8
Dimensions
  6
DOT
 62
256
 10
6.35
 20
10.99852258
  0
VERTEX
  8
Dimensions
  6
DOT
 62
256
 10
-6.35
 20
10.99852258
  0
VERTEX
  8
Dimensions
  6
DOT
 62
256
 10
-12.7
 20
0
  0
VERTEX
  8
Dimensions
  6
DOT
 62
256
 10
-6.35
 20
-10.99852258
  0
VERTEX
  8
Dimensions
  6
DOT
 62
256
 10
6.35
 20
-10.99852258
  0
SEQEND
  0
ENDBLK
  0
BLOCK
  8
0
  2
DETAIL
 70
0
 10
0
 20
0
  0
LINE
  8
Dimensions
  6
DOT
 62
256
 10
-12.7
 20
0
 11
12.7
 21
0
  0
CIRCLE
  8
Dimensions
  6
DOT
 62
256
 10
0
 20
0
 40
12.7
  0
ENDBLK
  0
BLOCK
  8
0
  2
ROUND
 70
0
 10
0
 20
0
  0
LINE
  8
Dimensions
  6
DOT
 62
256
 10
-6.35
 20
-12.7
 11
6.35
 21
12.7
  0
CIRCLE
  8
Dimensions
  6
DOT
 62
256
 10
0
 20
0
 40
12.7
  0
ENDBLK
  0
ENDSEC
  0
SECTION
  2
ENTITIES
  0
TEXT
  8
Dimensions
  6
CONTINUOUS
 62
256
 11
350
 21
204.615384615385
 10
316.064
 20
200.615384615385
 50
0
 40
8
  1
700.00 mm
 41
0.6
  7
STANDARD
  0
LINE
  8
Dimensions
  6
CONTINUOUS
 62
256
 10
0.00000000000005
 20
167
 11
0.00000000000005
 21
210.615384615385
  0
LINE
  8
Dimensions
  6
CONTINUOUS
 62
256
 10
700
 20
149
 11
700
 21
210.615384615385
  0
LINE
  8
Dimensions
  6
CONTINUOUS
 62
256
 10
0.00000000000005
 20
204.615384615385
 11
316.112
 21
204.615384615385
  0
LINE
  8
Dimensions
  6
CONTINUOUS
 62
256
 10
700
 20
204.615384615385
 11
383.888
 21
204.615384615385
  0
INSERT
  8
Dimensions
  6
CONTINUOUS
 62
256
  2
LONGARROW
 10
0.00000000000005
 20
204.615384615385
 41
0.15748031496063
 42
0.15748031496063
 50
0
  0
INSERT
  8
Dimensions
  6
CONTINUOUS
 62
256
  2
LONGARROW
 10
700
 20
204.615384615385
 41
0.15748031496063
 42
0.15748031496063
 50
-180
  0
LINE
  8
Dimensions
  6
HIDDEN
 62
256
 10
0.00000000000005
 20
72.5000000000001
 11
872.5
 21
72.5000000000001
  0
LINE
  8
Dimensions
  6
HIDDEN
 62
256
 10
350
 20
-180
 11
350
 21
187.5
  0
LINE
  8
Dimensions
  6
HIDDEN
 62
256
 10
792.5
 20
167.5
 11
792.499999999999
 21
-92.9999999999999
  0
LINE
  8
Dimensions
  6
HIDDEN
 62
256
 10
792.499999999999
 20
-92.9999999999999
 11
-17.5
 21
-92.9999999999999
  0
LINE
  8
Dimensions
  6
BYLAYER
 62
256
 10
774.499999999999
 20
145
 11
774.499999999999
 21
163
  0
TEXT
  8
Dimensions
  6
CONTINUOUS
 62
256
 11
74.0000000000001
 21
72.5000000000001
 10
40.0640000000001
 20
68.5000000000001
 50
0
 40
8
  1
145.00 mm
 41
0.6
  7
STANDARD
  0
LINE
  8
Dimensions
  6
CONTINUOUS
 62
256
 10
40
 20
145
 11
80
 21
145
  0
LINE
  8
Dimensions
  6
CONTINUOUS
 62
256
 10
58.0000000000001
 20
0.00000000000007
 11
80.0000000000002
 21
0.00000000000007
  0
LINE
  8
Dimensions
  6
CONTINUOUS
 62
256
 10
74
 20
145
 11
74.0000000000001
 21
78.5000000000001
  0
LINE
  8
Dimensions
  6
CONTINUOUS
 62
256
 10
74.0000000000002
 20
0.00000000000007
 11
74.0000000000001
 21
66.5000000000001
  0
INSERT
  8
Dimensions
  6
CONTINUOUS
 62
256
  2
LONGARROW
 10
74
 20
145
 41
0.15748031496063
 42
0.15748031496063
 50
270
  0
INSERT
  8
Dimensions
  6
CONTINUOUS
 62
256
  2
LONGARROW
 10
74.0000000000002
 20
0.00000000000007
 41
0.15748031496063
 42
0.15748031496063
 50
90.0000000000001
  0
TEXT
  8
Dimensions
  6
CONTINUOUS
 62
256
 11
-28.0319999999998
 21
72.5000000000001
 10
-61.9679999999998
 20
68.5000000000001
 50
0
 40
8
  1
181.00 mm
 41
0.6
  7
STANDARD
  0
LINE
  8
Dimensions
  6
CONTINUOUS
 62
256
 10
-7.29838378123539
 20
-17.9999999999999
 11
-34.0319999999997
 21
-17.9999999999999
  0
LINE
  8
Dimensions
  6
CONTINUOUS
 62
256
 10
-7.29838378123529
 20
163
 11
-34.0319999999999
 21
163
  0
LINE
  8
Dimensions
  6
CONTINUOUS
 62
256
 10
-28.0319999999998
 20
-17.9999999999999
 11
-28.0319999999998
 21
66.5000000000001
  0
LINE
  8
Dimensions
  6
CONTINUOUS
 62
256
 10
-28.0319999999999
 20
163
 11
-28.0319999999999
 21
78.5000000000001
  0
INSERT
  8
Dimensions
  6
CONTINUOUS
 62
256
  2
LONGARROW
 10
-28.0319999999998
 20
-17.9999999999999
 41
0.15748031496063
 42
0.15748031496063
 50
90.0000000000001
  0
INSERT
  8
Dimensions
  6
CONTINUOUS
 62
256
  2
LONGARROW
 10
-28.0319999999999
 20
163
 41
0.15748031496063
 42
0.15748031496063
 50
-89.9999999999999
  0
TEXT
  8
Dimensions
  6
CONTINUOUS
 62
256
 11
792.499999999999
 21
205.12627804778
 10
758.563999999999
 20
201.12627804778
 50
0
 40
8
  1
131.00 mm
 41
0.6
  7
STANDARD
  0
LINE
  8
Dimensions
  6
CONTINUOUS
 62
256
 10
726.999999999999
 20
131
 11
726.999999999999
 21
211.12627804778
  0
LINE
  8
Dimensions
  6
CONTINUOUS
 62
256
 10
857.999999999999
 20
131
 11
857.999999999999
 21
211.12627804778
  0
LINE
  8
Dimensions
  6
CONTINUOUS
 62
256
 10
726.999999999999
 20
205.12627804778
 11
758.611999999999
 21
205.12627804778
  0
LINE
  8
Dimensions
  6
CONTINUOUS
 62
256
 10
857.999999999999
 20
205.12627804778
 11
826.387999999999
 21
205.12627804778
  0
INSERT
  8
Dimensions
  6
CONTINUOUS
 62
256
  2
LONGARROW
 10
726.999999999999
 20
205.12627804778
 41
0.15748031496063
 42
0.15748031496063
 50
0
  0
INSERT
  8
Dimensions
  6
CONTINUOUS
 62
256
  2
LONGARROW
 10
857.999999999999
 20
205.12627804778
 41
0.15748031496063
 42
0.15748031496063
 50
-180
  0
TEXT
  8
Dimensions
  6
CONTINUOUS
 62
256
 11
792.499999999999
 21
107
 10
762.336799999999
 20
103
 50
0
 40
8
  1
95.00 mm
 41
0.6
  7
STANDARD
  0
LINE
  8
Dimensions
  6
CONTINUOUS
 62
256
 10
839.999999999999
 20
123
 11
839.999999999999
 21
101
  0
LINE
  8
Dimensions
  6
CONTINUOUS
 62
256
 10
744.999999999999
 20
123
 11
744.999999999999
 21
101
  0
LINE
  8
Dimensions
  6
CONTINUOUS
 62
256
 10
839.999999999999
 20
107
 11
822.619999999999
 21
107
  0
LINE
  8
Dimensions
  6
CONTINUOUS
 62
256
 10
744.999999999999
 20
107
 11
762.379999999999
 21
107
  0
INSERT
  8
Dimensions
  6
CONTINUOUS
 62
256
  2
LONGARROW
 10
839.999999999999
 20
107
 41
0.15748031496063
 42
0.15748031496063
 50
180
  0
INSERT
  8
Dimensions
  6
CONTINUOUS
 62
256
  2
LONGARROW
 10
744.999999999999
 20
107
 41
0.15748031496063
 42
0.15748031496063
 50
0
  0
TEXT
  8
Dimensions
  6
CONTINUOUS
 62
256
 11
16
 21
-24.9999999999991
 10
-10.3904
 20
-28.9999999999991
 50
0
 40
8
  1
2.00 mm
 41
0.6
  7
STANDARD
  0
LINE
  8
Dimensions
  6
CONTINUOUS
 62
256
 10
68
 20
-45
 11
10
 21
-45
  0
LINE
  8
Dimensions
  6
CONTINUOUS
 62
256
 10
32
 20
-42.9999999999991
 11
10
 21
-42.9999999999991
  0
LINE
  8
Dimensions
  6
CONTINUOUS
 62
256
 10
16
 20
-45
 11
16
 21
-57
  0
LINE
  8
Dimensions
  6
CONTINUOUS
 62
256
 10
16
 20
-42.9999999999991
 11
16
 21
-30.9999999999991
  0
INSERT
  8
Dimensions
  6
CONTINUOUS
 62
256
  2
LONGARROW
 10
16
 20
-45
 41
0.15748031496063
 42
0.15748031496063
 50
270
  0
INSERT
  8
Dimensions
  6
CONTINUOUS
 62
256
  2
LONGARROW
 10
16
 20
-42.9999999999991
 41
0.15748031496063
 42
0.15748031496063
 50
90.0000000000001
  0
TEXT
  8
Dimensions
  6
CONTINUOUS
 62
256
 11
108.013456297826
 21
-90.4999999999999
 10
77.8502562978263
 20
-94.4999999999999
 50
0
 40
8
  1
95.00 mm
 41
0.6
  7
STANDARD
  0
LINE
  8
Dimensions
  6
CONTINUOUS
 62
256
 10
98.7336904679316
 20
-42.9999999999999
 11
114.013456297826
 21
-42.9999999999999
  0
LINE
  8
Dimensions
  6
CONTINUOUS
 62
256
 10
105.02410586104
 20
-138
 11
114.013456297826
 21
-138
  0
LINE
  8
Dimensions
  6
CONTINUOUS
 62
256
 10
108.013456297826
 20
-42.9999999999999
 11
108.013456297826
 21
-84.4999999999999
  0
LINE
  8
Dimensions
  6
CONTINUOUS
 62
256
 10
108.013456297826
 20
-138
 11
108.013456297826
 21
-96.4999999999999
  0
INSERT
  8
Dimensions
  6
CONTINUOUS
 62
256
  2
LONGARROW
 10
108.013456297826
 20
-42.9999999999999
 41
0.15748031496063
 42
0.15748031496063
 50
270
  0
INSERT
  8
Dimensions
  6
CONTINUOUS
 62
256
  2
LONGARROW
 10
108.013456297826
 20
-138
 41
0.15748031496063
 42
0.15748031496063
 50
90.0000000000001
  0
LINE
  8
Dimensions
  6
DOT
 62
256
 10
0.00000000000016
 20
-45
 11
700
 21
-45
  0
POLYLINE
  8
Drawing
  6
BYLAYER
 62
256
 70
1
 66
1
  0
VERTEX
  8
Drawing
  6
BYLAYER
 62
256
 10
288
 20
0.00000000000007
  0
VERTEX
  8
Drawing
  6
BYLAYER
 62
256
 10
306
 20
0.00000000000007
  0
VERTEX
  8
Drawing
  6
BYLAYER
 62
256
 10
306
 20
-17.9999999999999
  0
VERTEX
  8
Drawing
  6
BYLAYER
 62
256
 10
324
 20
-17.9999999999999
  0
VERTEX
  8
Drawing
  6
BYLAYER
 62
256
 10
324
 20
0.00000000000007
  0
VERTEX
  8
Drawing
  6
BYLAYER
 62
256
 10
342
 20
0.00000000000007
  0
VERTEX
  8
Drawing
  6
BYLAYER
 62
256
 10
342
 20
-17.9999999999999
  0
VERTEX
  8
Drawing
  6
BYLAYER
 62
256
 10
358
 20
-17.9999999999999
  0
VERTEX
  8
Drawing
  6
BYLAYER
 62
256
 10
358
 20
0.00000000000007
  0
VERTEX
  8
Drawing
  6
BYLAYER
 62
256
 10
376
 20
0.00000000000009
  0
VERTEX
  8
Drawing
  6
BYLAYER
 62
256
 10
376
 20
-17.9999999999999
  0
VERTEX
  8
Drawing
  6
BYLAYER
 62
256
 10
394
 20
-17.9999999999999
  0
VERTEX
  8
Drawing
  6
BYLAYER
 62
256
 10
394
 20
0.00000000000009
  0
VERTEX
  8
Drawing
  6
BYLAYER
 62
256
 10
412
 20
0.00000000000009
  0
VERTEX
  8
Drawing
  6
BYLAYER
 62
256
 10
412
 20
-17.9999999999999
  0
VERTEX
  8
Drawing
  6
BYLAYER
 62
256
 10
430
 20
-17.9999999999999
  0
VERTEX
  8
Drawing
  6
BYLAYER
 62
256
 10
430
 20
0.00000000000011
  0
VERTEX
  8
Drawing
  6
BYLAYER
 62
256
 10
448
 20
0.00000000000011
  0
VERTEX
  8
Drawing
  6
BYLAYER
 62
256
 10
448
 20
-17.9999999999999
  0
VERTEX
  8
Drawing
  6
BYLAYER
 62
256
 10
466
 20
-17.9999999999999
  0
VERTEX
  8
Drawing
  6
BYLAYER
 62
256
 10
466
 20
0.00000000000011
  0
VERTEX
  8
Drawing
  6
BYLAYER
 62
256
 10
484
 20
0.00000000000011
  0
VERTEX
  8
Drawing
  6
BYLAYER
 62
256
 10
484
 20
-17.9999999999999
  0
VERTEX
  8
Drawing
  6
BYLAYER
 62
256
 10
502
 20
-17.9999999999998
  0
VERTEX
  8
Drawing
  6
BYLAYER
 62
256
 10
502
 20
0.00000000000014
  0
VERTEX
  8
Drawing
  6
BYLAYER
 62
256
 10
520
 20
0.00000000000014
  0
VERTEX
  8
Drawing
  6
BYLAYER
 62
256
 10
520
 20
-17.9999999999998
  0
VERTEX
  8
Drawing
  6
BYLAYER
 62
256
 10
538
 20
-17.9999999999998
  0
VERTEX
  8
Drawing
  6
BYLAYER
 62
256
 10
538
 20
0.00000000000014
  0
VERTEX
  8
Drawing
  6
BYLAYER
 62
256
 10
556
 20
0.00000000000016
  0
VERTEX
  8
Drawing
  6
BYLAYER
 62
256
 10
556
 20
-17.9999999999998
  0
VERTEX
  8
Drawing
  6
BYLAYER
 62
256
 10
574
 20
-17.9999999999998
  0
VERTEX
  8
Drawing
  6
BYLAYER
 62
256
 10
574
 20
0.00000000000016
  0
VERTEX
  8
Drawing
  6
BYLAYER
 62
256
 10
592
 20
0.00000000000016
  0
VERTEX
  8
Drawing
  6
BYLAYER
 62
256
 10
592
 20
-17.9999999999998
  0
VERTEX
  8
Drawing
  6
BYLAYER
 62
256
 10
610
 20
-17.9999999999998
  0
VERTEX
  8
Drawing
  6
BYLAYER
 62
256
 10
610
 20
0.00000000000018
  0
VERTEX
  8
Drawing
  6
BYLAYER
 62
256
 10
628
 20
0.00000000000018
  0
VERTEX
  8
Drawing
  6
BYLAYER
 62
256
 10
628
 20
-17.9999999999998
  0
VERTEX
  8
Drawing
  6
BYLAYER
 62
256
 10
646
 20
-17.9999999999998
  0
VERTEX
  8
Drawing
  6
BYLAYER
 62
256
 10
646
 20
0.00000000000018
  0
VERTEX
  8
Drawing
  6
BYLAYER
 62
256
 10
664
 20
0.00000000000018
  0
VERTEX
  8
Drawing
  6
BYLAYER
 62
256
 10
664
 20
-17.9999999999998
  0
VERTEX
  8
Drawing
  6
BYLAYER
 62
256
 10
700
 20
-17.9999999999998
  0
VERTEX
  8
Drawing
  6
BYLAYER
 62
256
 10
700
 20
18.0000000000002
  0
VERTEX
  8
Drawing
  6
BYLAYER
 62
256
 10
682
 20
18.0000000000001
  0
VERTEX
  8
Drawing
  6
BYLAYER
 62
256
 10
682
 20
36.0000000000001
  0
VERTEX
  8
Drawing
  6
BYLAYER
 62
256
 10
700
 20
36.0000000000002
  0
VERTEX
  8
Drawing
  6
BYLAYER
 62
256
 10
700
 20
54.0000000000002
  0
VERTEX
  8
Drawing
  6
BYLAYER
 62
256
 10
682
 20
54.0000000000001
  0
VERTEX
  8
Drawing
  6
BYLAYER
 62
256
 10
682
 20
91
  0
VERTEX
  8
Drawing
  6
BYLAYER
 62
256
 10
700
 20
90.9999999999999
  0
VERTEX
  8
Drawing
  6
BYLAYER
 62
256
 10
700
 20
109
  0
VERTEX
  8
Drawing
  6
BYLAYER
 62
256
 10
682
 20
109
  0
VERTEX
  8
Drawing
  6
BYLAYER
 62
256
 10
682
 20
127
  0
VERTEX
  8
Drawing
  6
BYLAYER
 62
256
 10
700
 20
127
  0
VERTEX
  8
Drawing
  6
BYLAYER
 62
256
 10
700
 20
163
  0
VERTEX
  8
Drawing
  6
BYLAYER
 62
256
 10
664
 20
163
  0
VERTEX
  8
Drawing
  6
BYLAYER
 62
256
 10
664
 20
145
  0
VERTEX
  8
Drawing
  6
BYLAYER
 62
256
 10
646
 20
145
  0
VERTEX
  8
Drawing
  6
BYLAYER
 62
256
 10
646
 20
163
  0
VERTEX
  8
Drawing
  6
BYLAYER
 62
256
 10
628
 20
163
  0
VERTEX
  8
Drawing
  6
BYLAYER
 62
256
 10
628
 20
145
  0
VERTEX
  8
Drawing
  6
BYLAYER
 62
256
 10
610
 20
145
  0
VERTEX
  8
Drawing
  6
BYLAYER
 62
256
 10
610
 20
163
  0
VERTEX
  8
Drawing
  6
BYLAYER
 62
256
 10
592
 20
163
  0
VERTEX
  8
Drawing
  6
BYLAYER
 62
256
 10
592
 20
145
  0
VERTEX
  8
Drawing
  6
BYLAYER
 62
256
 10
574
 20
145
  0
VERTEX
  8
Drawing
  6
BYLAYER
 62
256
 10
574
 20
163
  0
VERTEX
  8
Drawing
  6
BYLAYER
 62
256
 10
556
 20
163
  0
VERTEX
  8
Drawing
  6
BYLAYER
 62
256
 10
556
 20
145
  0
VERTEX
  8
Drawing
  6
BYLAYER
 62
256
 10
538
 20
145
  0
VERTEX
  8
Drawing
  6
BYLAYER
 62
256
 10
538
 20
163
  0
VERTEX
  8
Drawing
  6
BYLAYER
 62
256
 10
520
 20
163
  0
VERTEX
  8
Drawing
  6
BYLAYER
 62
256
 10
520
 20
145
  0
VERTEX
  8
Drawing
  6
BYLAYER
 62
256
 10
502
 20
145
  0
VERTEX
  8
Drawing
  6
BYLAYER
 62
256
 10
502
 20
163
  0
VERTEX
  8
Drawing
  6
BYLAYER
 62
256
 10
484
 20
163
  0
VERTEX
  8
Drawing
  6
BYLAYER
 62
256
 10
484
 20
145
  0
VERTEX
  8
Drawing
  6
BYLAYER
 62
256
 10
466
 20
145
  0
VERTEX
  8
Drawing
  6
BYLAYER
 62
256
 10
466
 20
163
  0
VERTEX
  8
Drawing
  6
BYLAYER
 62
256
 10
448
 20
163
  0
VERTEX
  8
Drawing
  6
BYLAYER
 62
256
 10
448
 20
145
  0
VERTEX
  8
Drawing
  6
BYLAYER
 62
256
 10
430
 20
145
  0
VERTEX
  8
Drawing
  6
BYLAYER
 62
256
 10
430
 20
163
  0
VERTEX
  8
Drawing
  6
BYLAYER
 62
256
 10
412
 20
163
  0
VERTEX
  8
Drawing
  6
BYLAYER
 62
256
 10
412
 20
145
  0
VERTEX
  8
Drawing
  6
BYLAYER
 62
256
 10
394
 20
145
  0
VERTEX
  8
Drawing
  6
BYLAYER
 62
256
 10
394
 20
163
  0
VERTEX
  8
Drawing
  6
BYLAYER
 62
256
 10
376
 20
163
  0
VERTEX
  8
Drawing
  6
BYLAYER
 62
256
 10
376
 20
145
  0
VERTEX
  8
Drawing
  6
BYLAYER
 62
256
 10
358
 20
145
  0
VERTEX
  8
Drawing
  6
BYLAYER
 62
256
 10
358
 20
163
  0
VERTEX
  8
Drawing
  6
BYLAYER
 62
256
 10
342
 20
163
  0
VERTEX
  8
Drawing
  6
BYLAYER
 62
256
 10
342
 20
145
  0
VERTEX
  8
Drawing
  6
BYLAYER
 62
256
 10
324
 20
145
  0
VERTEX
  8
Drawing
  6
BYLAYER
 62
256
 10
324
 20
163
  0
VERTEX
  8
Drawing
  6
BYLAYER
 62
256
 10
306
 20
163
  0
VERTEX
  8
Drawing
  6
BYLAYER
 62
256
 10
306
 20
145
  0
VERTEX
  8
Drawing
  6
BYLAYER
 62
256
 10
288
 20
145
  0
VERTEX
  8
Drawing
  6
BYLAYER
 62
256
 10
288
 20
163
  0
VERTEX
  8
Drawing
  6
BYLAYER
 62
256
 10
270
 20
163
  0
VERTEX
  8
Drawing
  6
BYLAYER
 62
256
 10
270
 20
145
  0
VERTEX
  8
Drawing
  6
BYLAYER
 62
256
 10
252
 20
145
  0
VERTEX
  8
Drawing
  6
BYLAYER
 62
256
 10
252
 20
163
  0
VERTEX
  8
Drawing
  6
BYLAYER
 62
256
 10
234
 20
163
  0
VERTEX
  8
Drawing
  6
BYLAYER
 62
256
 10
234
 20
145
  0
VERTEX
  8
Drawing
  6
BYLAYER
 62
256
 10
216
 20
145
  0
VERTEX
  8
Drawing
  6
BYLAYER
 62
256
 10
216
 20
163
  0
VERTEX
  8
Drawing
  6
BYLAYER
 62
256
 10
198
 20
163
  0
VERTEX
  8
Drawing
  6
BYLAYER
 62
256
 10
198
 20
145
  0
VERTEX
  8
Drawing
  6
BYLAYER
 62
256
 10
180
 20
145
  0
VERTEX
  8
Drawing
  6
BYLAYER
 62
256
 10
180
 20
163
  0
VERTEX
  8
Drawing
  6
BYLAYER
 62
256
 10
162
 20
163
  0
VERTEX
  8
Drawing
  6
BYLAYER
 62
256
 10
162
 20
145
  0
VERTEX
  8
Drawing
  6
BYLAYER
 62
256
 10
144
 20
145
  0
VERTEX
  8
Drawing
  6
BYLAYER
 62
256
 10
144
 20
163
  0
VERTEX
  8
Drawing
  6
BYLAYER
 62
256
 10
126
 20
163
  0
VERTEX
  8
Drawing
  6
BYLAYER
 62
256
 10
126
 20
145
  0
VERTEX
  8
Drawing
  6
BYLAYER
 62
256
 10
108
 20
145
  0
VERTEX
  8
Drawing
  6
BYLAYER
 62
256
 10
108
 20
163
  0
VERTEX
  8
Drawing
  6
BYLAYER
 62
256
 10
90
 20
163
  0
VERTEX
  8
Drawing
  6
BYLAYER
 62
256
 10
90
 20
145
  0
VERTEX
  8
Drawing
  6
BYLAYER
 62
256
 10
72
 20
145
  0
VERTEX
  8
Drawing
  6
BYLAYER
 62
256
 10
72
 20
163
  0
VERTEX
  8
Drawing
  6
BYLAYER
 62
256
 10
54
 20
163
  0
VERTEX
  8
Drawing
  6
BYLAYER
 62
256
 10
54.0000000000001
 20
145
  0
VERTEX
  8
Drawing
  6
BYLAYER
 62
256
 10
36.0000000000001
 20
145
  0
VERTEX
  8
Drawing
  6
BYLAYER
 62
256
 10
36
 20
163
  0
VERTEX
  8
Drawing
  6
BYLAYER
 62
256
 10
0.00000000000014
 20
163
  0
VERTEX
  8
Drawing
  6
BYLAYER
 62
256
 10
0.00000000000014
 20
127
  0
VERTEX
  8
Drawing
  6
BYLAYER
 62
256
 10
18.0000000000001
 20
127
  0
VERTEX
  8
Drawing
  6
BYLAYER
 62
256
 10
18.0000000000002
 20
109
  0
VERTEX
  8
Drawing
  6
BYLAYER
 62
256
 10
0.00000000000022
 20
109
  0
VERTEX
  8
Drawing
  6
BYLAYER
 62
256
 10
0.0000000000003
 20
91.0000000000001
  0
VERTEX
  8
Drawing
  6
BYLAYER
 62
256
 10
18.0000000000003
 20
91.0000000000001
  0
VERTEX
  8
Drawing
  6
BYLAYER
 62
256
 10
18.0000000000003
 20
54.0000000000001
  0
VERTEX
  8
Drawing
  6
BYLAYER
 62
256
 10
0.0000000000003
 20
54.0000000000001
  0
VERTEX
  8
Drawing
  6
BYLAYER
 62
256
 10
0.00000000000022
 20
36.0000000000001
  0
VERTEX
  8
Drawing
  6
BYLAYER
 62
256
 10
18.0000000000002
 20
36.0000000000001
  0
VERTEX
  8
Drawing
  6
BYLAYER
 62
256
 10
18.0000000000001
 20
18.0000000000001
  0
VERTEX
  8
Drawing
  6
BYLAYER
 62
256
 10
0.00000000000014
 20
18.0000000000001
  0
VERTEX
  8
Drawing
  6
BYLAYER
 62
256
 10
0.00000000000005
 20
-17.9999999999999
  0
VERTEX
  8
Drawing
  6
BYLAYER
 62
256
 10
36
 20
-17.9999999999999
  0
VERTEX
  8
Drawing
  6
BYLAYER
 62
256
 10
36.0000000000001
 20
0.00000000000007
  0
VERTEX
  8
Drawing
  6
BYLAYER
 62
256
 10
54.0000000000001
 20
0.00000000000007
  0
VERTEX
  8
Drawing
  6
BYLAYER
 62
256
 10
54
 20
-17.9999999999999
  0
VERTEX
  8
Drawing
  6
BYLAYER
 62
256
 10
72
 20
-17.9999999999999
  0
VERTEX
  8
Drawing
  6
BYLAYER
 62
256
 10
72
 20
0.00000000000007
  0
VERTEX
  8
Drawing
  6
BYLAYER
 62
256
 10
90
 20
0.00000000000007
  0
VERTEX
  8
Drawing
  6
BYLAYER
 62
256
 10
90
 20
-17.9999999999999
  0
VERTEX
  8
Drawing
  6
BYLAYER
 62
256
 10
108
 20
-17.9999999999999
  0
VERTEX
  8
Drawing
  6
BYLAYER
 62
256
 10
108
 20
0.00000000000007
  0
VERTEX
  8
Drawing
  6
BYLAYER
 62
256
 10
126
 20
0.00000000000007
  0
VERTEX
  8
Drawing
  6
BYLAYER
 62
256
 10
126
 20
-17.9999999999999
  0
VERTEX
  8
Drawing
  6
BYLAYER
 62
256
 10
144
 20
-17.9999999999999
  0
VERTEX
  8
Drawing
  6
BYLAYER
 62
256
 10
144
 20
0.00000000000007
  0
VERTEX
  8
Drawing
  6
BYLAYER
 62
256
 10
162
 20
0.00000000000007
  0
VERTEX
  8
Drawing
  6
BYLAYER
 62
256
 10
162
 20
-17.9999999999999
  0
VERTEX
  8
Drawing
  6
BYLAYER
 62
256
 10
180
 20
-17.9999999999999
  0
VERTEX
  8
Drawing
  6
BYLAYER
 62
256
 10
180
 20
0.00000000000007
  0
VERTEX
  8
Drawing
  6
BYLAYER
 62
256
 10
198
 20
0.00000000000007
  0
VERTEX
  8
Drawing
  6
BYLAYER
 62
256
 10
198
 20
-17.9999999999999
  0
VERTEX
  8
Drawing
  6
BYLAYER
 62
256
 10
216
 20
-17.9999999999999
  0
VERTEX
  8
Drawing
  6
BYLAYER
 62
256
 10
216
 20
0.00000000000007
  0
VERTEX
  8
Drawing
  6
BYLAYER
 62
256
 10
234
 20
0.00000000000007
  0
VERTEX
  8
Drawing
  6
BYLAYER
 62
256
 10
234
 20
-17.9999999999999
  0
VERTEX
  8
Drawing
  6
BYLAYER
 62
256
 10
252
 20
-17.9999999999999
  0
VERTEX
  8
Drawing
  6
BYLAYER
 62
256
 10
252
 20
0.00000000000007
  0
VERTEX
  8
Drawing
  6
BYLAYER
 62
256
 10
270
 20
0.00000000000007
  0
VERTEX
  8
Drawing
  6
BYLAYER
 62
256
 10
270
 20
-17.9999999999999
  0
VERTEX
  8
Drawing
  6
BYLAYER
 62
256
 10
288
 20
-17.9999999999999
  0
SEQEND
  0
POLYLINE
  8
Drawing
  6
BYLAYER
 62
256
 70
0
 66
1
  0
VERTEX
  8
Drawing
  6
BYLAYER
 62
256
 10
774.499999999999
 20
163
  0
VERTEX
  8
Drawing
  6
BYLAYER
 62
256
 10
745
 20
163
  0
VERTEX
  8
Drawing
  6
BYLAYER
 62
256
 10
744.999999999999
 20
127
  0
VERTEX
  8
Drawing
  6
BYLAYER
 62
256
 10
726.999999999999
 20
127
  0
VERTEX
  8
Drawing
  6
BYLAYER
 62
256
 10
726.999999999999
 20
109
  0
VERTEX
  8
Drawing
  6
BYLAYER
 62
256
 10
744.999999999999
 20
109
  0
VERTEX
  8
Drawing
  6
BYLAYER
 62
256
 10
744.999999999999
 20
91
  0
VERTEX
  8
Drawing
  6
BYLAYER
 62
256
 10
726.999999999999
 20
91
  0
VERTEX
  8
Drawing
  6
BYLAYER
 62
256
 10
726.999999999999
 20
54.0000000000002
  0
VERTEX
  8
Drawing
  6
BYLAYER
 62
256
 10
744.999999999999
 20
54.0000000000002
  0
VERTEX
  8
Drawing
  6
BYLAYER
 62
256
 10
744.999999999999
 20
36.0000000000002
  0
VERTEX
  8
Drawing
  6
BYLAYER
 62
256
 10
726.999999999999
 20
36.0000000000002
  0
VERTEX
  8
Drawing
  6
BYLAYER
 62
256
 10
726.999999999999
 20
18.0000000000002
  0
VERTEX
  8
Drawing
  6
BYLAYER
 62
256
 10
744.999999999999
 20
18.0000000000002
  0
VERTEX
  8
Drawing
  6
BYLAYER
 62
256
 10
745
 20
-17.9999999999998
  0
VERTEX
  8
Drawing
  6
BYLAYER
 62
256
 10
774.499999999999
 20
-17.9999999999998
  0
VERTEX
  8
Drawing
  6
BYLAYER
 62
256
 10
774.499999999999
 20
0.00000000000022
  0
VERTEX
  8
Drawing
  6
BYLAYER
 62
256
 10
810.499999999999
 20
0.00000000000025
  0
VERTEX
  8
Drawing
  6
BYLAYER
 62
256
 10
810.499999999999
 20
-17.9999999999997
  0
VERTEX
  8
Drawing
  6
BYLAYER
 62
256
 10
839.999999999999
 20
-17.9999999999997
  0
VERTEX
  8
Drawing
  6
BYLAYER
 62
256
 10
839.999999999999
 20
18.0000000000002
  0
VERTEX
  8
Drawing
  6
BYLAYER
 62
256
 10
857.999999999999
 20
18.0000000000001
  0
VERTEX
  8
Drawing
  6
BYLAYER
 62
256
 10
857.999999999999
 20
36.0000000000001
  0
VERTEX
  8
Drawing
  6
BYLAYER
 62
256
 10
839.999999999999
 20
36.0000000000002
  0
VERTEX
  8
Drawing
  6
BYLAYER
 62
256
 10
840
 20
54.0000000000002
  0
VERTEX
  8
Drawing
  6
BYLAYER
 62
256
 10
857.999999999999
 20
54.0000000000001
  0
VERTEX
  8
Drawing
  6
BYLAYER
 62
256
 10
857.999999999999
 20
91
  0
VERTEX
  8
Drawing
  6
BYLAYER
 62
256
 10
840
 20
90.9999999999999
  0
VERTEX
  8
Drawing
  6
BYLAYER
 62
256
 10
839.999999999999
 20
109
  0
VERTEX
  8
Drawing
  6
BYLAYER
 62
256
 10
857.999999999999
 20
109
  0
VERTEX
  8
Drawing
  6
BYLAYER
 62
256
 10
857.999999999999
 20
127
  0
VERTEX
  8
Drawing
  6
BYLAYER
 62
256
 10
839.999999999999
 20
127
  0
VERTEX
  8
Drawing
  6
BYLAYER
 62
256
 10
839.999999999999
 20
163
  0
VERTEX
  8
Drawing
  6
BYLAYER
 62
256
 10
810.499999999999
 20
163
  0
VERTEX
  8
Drawing
  6
BYLAYER
 62
256
 10
810.499999999999
 20
145
  0
VERTEX
  8
Drawing
  6
BYLAYER
 62
256
 10
774.499999999999
 20
145
  0
SEQEND
  0
POLYLINE
  8
Drawing
  6
BYLAYER
 62
256
 70
1
 66
1
  0
VERTEX
  8
Drawing
  6
BYLAYER
 62
256
 10
0.00000000000021
 20
-108.499999999999
  0
VERTEX
  8
Drawing
  6
BYLAYER
 62
256
 10
18.0000000000001
 20
-108.499999999999
  0
VERTEX
  8
Drawing
  6
BYLAYER
 62
256
 10
17.9999999999999
 20
-137.999999999999
  0
VERTEX
  8
Drawing
  6
BYLAYER
 62
256
 10
35.9999999999998
 20
-137.999999999999
  0
VERTEX
  8
Drawing
  6
BYLAYER
 62
256
 10
36.0000000000001
 20
-156
  0
VERTEX
  8
Drawing
  6
BYLAYER
 62
256
 10
54.0000000000001
 20
-156
  0
VERTEX
  8
Drawing
  6
BYLAYER
 62
256
 10
54
 20
-138
  0
VERTEX
  8
Drawing
  6
BYLAYER
 62
256
 10
72
 20
-138
  0
VERTEX
  8
Drawing
  6
BYLAYER
 62
256
 10
72
 20
-156
  0
VERTEX
  8
Drawing
  6
BYLAYER
 62
256
 10
90
 20
-156
  0
VERTEX
  8
Drawing
  6
BYLAYER
 62
256
 10
90
 20
-138
  0
VERTEX
  8
Drawing
  6
BYLAYER
 62
256
 10
108
 20
-138
  0
VERTEX
  8
Drawing
  6
BYLAYER
 62
256
 10
108
 20
-156
  0
VERTEX
  8
Drawing
  6
BYLAYER
 62
256
 10
126
 20
-156
  0
VERTEX
  8
Drawing
  6
BYLAYER
 62
256
 10
126
 20
-138
  0
VERTEX
  8
Drawing
  6
BYLAYER
 62
256
 10
144
 20
-138
  0
VERTEX
  8
Drawing
  6
BYLAYER
 62
256
 10
144
 20
-156
  0
VERTEX
  8
Drawing
  6
BYLAYER
 62
256
 10
162
 20
-156
  0
VERTEX
  8
Drawing
  6
BYLAYER
 62
256
 10
162
 20
-138
  0
VERTEX
  8
Drawing
  6
BYLAYER
 62
256
 10
180
 20
-138
  0
VERTEX
  8
Drawing
  6
BYLAYER
 62
256
 10
180
 20
-156
  0
VERTEX
  8
Drawing
  6
BYLAYER
 62
256
 10
198
 20
-156
  0
VERTEX
  8
Drawing
  6
BYLAYER
 62
256
 10
198
 20
-138
  0
VERTEX
  8
Drawing
  6
BYLAYER
 62
256
 10
216
 20
-138
  0
VERTEX
  8
Drawing
  6
BYLAYER
 62
256
 10
216
 20
-156
  0
VERTEX
  8
Drawing
  6
BYLAYER
 62
256
 10
234
 20
-156
  0
VERTEX
  8
Drawing
  6
BYLAYER
 62
256
 10
234
 20
-138
  0
VERTEX
  8
Drawing
  6
BYLAYER
 62
256
 10
252
 20
-138
  0
VERTEX
  8
Drawing
  6
BYLAYER
 62
256
 10
252
 20
-156
  0
VERTEX
  8
Drawing
  6
BYLAYER
 62
256
 10
270
 20
-156
  0
VERTEX
  8
Drawing
  6
BYLAYER
 62
256
 10
270
 20
-138
  0
VERTEX
  8
Drawing
  6
BYLAYER
 62
256
 10
288
 20
-138
  0
VERTEX
  8
Drawing
  6
BYLAYER
 62
256
 10
288
 20
-156
  0
VERTEX
  8
Drawing
  6
BYLAYER
 62
256
 10
306
 20
-156
  0
VERTEX
  8
Drawing
  6
BYLAYER
 62
256
 10
306
 20
-138
  0
VERTEX
  8
Drawing
  6
BYLAYER
 62
256
 10
324
 20
-138
  0
VERTEX
  8
Drawing
  6
BYLAYER
 62
256
 10
324
 20
-156
  0
VERTEX
  8
Drawing
  6
BYLAYER
 62
256
 10
342
 20
-156
  0
VERTEX
  8
Drawing
  6
BYLAYER
 62
256
 10
342
 20
-138
  0
VERTEX
  8
Drawing
  6
BYLAYER
 62
256
 10
358
 20
-138
  0
VERTEX
  8
Drawing
  6
BYLAYER
 62
256
 10
358
 20
-156
  0
VERTEX
  8
Drawing
  6
BYLAYER
 62
256
 10
376
 20
-156
  0
VERTEX
  8
Drawing
  6
BYLAYER
 62
256
 10
376
 20
-138
  0
VERTEX
  8
Drawing
  6
BYLAYER
 62
256
 10
394
 20
-138
  0
VERTEX
  8
Drawing
  6
BYLAYER
 62
256
 10
394
 20
-156
  0
VERTEX
  8
Drawing
  6
BYLAYER
 62
256
 10
412
 20
-156
  0
VERTEX
  8
Drawing
  6
BYLAYER
 62
256
 10
412
 20
-138
  0
VERTEX
  8
Drawing
  6
BYLAYER
 62
256
 10
430
 20
-138
  0
VERTEX
  8
Drawing
  6
BYLAYER
 62
256
 10
430
 20
-156
  0
VERTEX
  8
Drawing
  6
BYLAYER
 62
256
 10
448
 20
-156
  0
VERTEX
  8
Drawing
  6
BYLAYER
 62
256
 10
448
 20
-138
  0
VERTEX
  8
Drawing
  6
BYLAYER
 62
256
 10
466
 20
-138
  0
VERTEX
  8
Drawing
  6
BYLAYER
 62
256
 10
466
 20
-156
  0
VERTEX
  8
Drawing
  6
BYLAYER
 62
256
 10
484
 20
-156
  0
VERTEX
  8
Drawing
  6
BYLAYER
 62
256
 10
484
 20
-138
  0
VERTEX
  8
Drawing
  6
BYLAYER
 62
256
 10
502
 20
-138
  0
VERTEX
  8
Drawing
  6
BYLAYER
 62
256
 10
502
 20
-156
  0
VERTEX
  8
Drawing
  6
BYLAYER
 62
256
 10
520
 20
-156
  0
VERTEX
  8
Drawing
  6
BYLAYER
 62
256
 10
520
 20
-138
  0
VERTEX
  8
Drawing
  6
BYLAYER
 62
256
 10
538
 20
-138
  0
VERTEX
  8
Drawing
  6
BYLAYER
 62
256
 10
538
 20
-156
  0
VERTEX
  8
Drawing
  6
BYLAYER
 62
256
 10
556
 20
-156
  0
VERTEX
  8
Drawing
  6
BYLAYER
 62
256
 10
556
 20
-138
  0
VERTEX
  8
Drawing
  6
BYLAYER
 62
256
 10
574
 20
-138
  0
VERTEX
  8
Drawing
  6
BYLAYER
 62
256
 10
574
 20
-156
  0
VERTEX
  8
Drawing
  6
BYLAYER
 62
256
 10
592
 20
-156
  0
VERTEX
  8
Drawing
  6
BYLAYER
 62
256
 10
592
 20
-138
  0
VERTEX
  8
Drawing
  6
BYLAYER
 62
256
 10
610
 20
-138
  0
VERTEX
  8
Drawing
  6
BYLAYER
 62
256
 10
610
 20
-156
  0
VERTEX
  8
Drawing
  6
BYLAYER
 62
256
 10
628
 20
-156
  0
VERTEX
  8
Drawing
  6
BYLAYER
 62
256
 10
628
 20
-138
  0
VERTEX
  8
Drawing
  6
BYLAYER
 62
256
 10
646
 20
-138
  0
VERTEX
  8
Drawing
  6
BYLAYER
 62
256
 10
646
 20
-156
  0
VERTEX
  8
Drawing
  6
BYLAYER
 62
256
 10
664
 20
-156
  0
VERTEX
  8
Drawing
  6
BYLAYER
 62
256
 10
664
 20
-138
  0
VERTEX
  8
Drawing
  6
BYLAYER
 62
256
 10
682
 20
-138
  0
VERTEX
  8
Drawing
  6
BYLAYER
 62
256
 10
682
 20
-108.5
  0
VERTEX
  8
Drawing
  6
BYLAYER
 62
256
 10
700
 20
-108.5
  0
VERTEX
  8
Drawing
  6
BYLAYER
 62
256
 10
700
 20
-72.4999999999999
  0
VERTEX
  8
Drawing
  6
BYLAYER
 62
256
 10
682
 20
-72.4999999999999
  0
VERTEX
  8
Drawing
  6
BYLAYER
 62
256
 10
682
 20
-42.9999999999998
  0
VERTEX
  8
Drawing
  6
BYLAYER
 62
256
 10
664
 20
-42.9999999999998
  0
VERTEX
  8
Drawing
  6
BYLAYER
 62
256
 10
664
 20
-24.9999999999998
  0
VERTEX
  8
Drawing
  6
BYLAYER
 62
256
 10
646
 20
-24.9999999999998
  0
VERTEX
  8
Drawing
  6
BYLAYER
 62
256
 10
646
 20
-45
  0
VERTEX
  8
Drawing
  6
BYLAYER
 62
256
 10
628
 20
-45
  0
VERTEX
  8
Drawing
  6
BYLAYER
 62
256
 10
628
 20
-24.9999999999998
  0
VERTEX
  8
Drawing
  6
BYLAYER
 62
256
 10
610
 20
-24.9999999999998
  0
VERTEX
  8
Drawing
  6
BYLAYER
 62
256
 10
610
 20
-42.9999999999998
  0
VERTEX
  8
Drawing
  6
BYLAYER
 62
256
 10
592
 20
-42.9999999999998
  0
VERTEX
  8
Drawing
  6
BYLAYER
 62
256
 10
592
 20
-24.9999999999998
  0
VERTEX
  8
Drawing
  6
BYLAYER
 62
256
 10
574
 20
-24.9999999999998
  0
VERTEX
  8
Drawing
  6
BYLAYER
 62
256
 10
574
 20
-42.9999999999998
  0
VERTEX
  8
Drawing
  6
BYLAYER
 62
256
 10
556
 20
-42.9999999999998
  0
VERTEX
  8
Drawing
  6
BYLAYER
 62
256
 10
556
 20
-24.9999999999998
  0
VERTEX
  8
Drawing
  6
BYLAYER
 62
256
 10
538
 20
-24.9999999999999
  0
VERTEX
  8
Drawing
  6
BYLAYER
 62
256
 10
538
 20
-42.9999999999998
  0
VERTEX
  8
Drawing
  6
BYLAYER
 62
256
 10
520
 20
-42.9999999999998
  0
VERTEX
  8
Drawing
  6
BYLAYER
 62
256
 10
520
 20
-24.9999999999999
  0
VERTEX
  8
Drawing
  6
BYLAYER
 62
256
 10
502
 20
-24.9999999999999
  0
VERTEX
  8
Drawing
  6
BYLAYER
 62
256
 10
502
 20
-42.9999999999998
  0
VERTEX
  8
Drawing
  6
BYLAYER
 62
256
 10
484
 20
-42.9999999999999
  0
VERTEX
  8
Drawing
  6
BYLAYER
 62
256
 10
484
 20
-24.9999999999999
  0
VERTEX
  8
Drawing
  6
BYLAYER
 62
256
 10
466
 20
-24.9999999999999
  0
VERTEX
  8
Drawing
  6
BYLAYER
 62
256
 10
466
 20
-42.9999999999999
  0
VERTEX
  8
Drawing
  6
BYLAYER
 62
256
 10
448
 20
-42.9999999999999
  0
VERTEX
  8
Drawing
  6
BYLAYER
 62
256
 10
448
 20
-24.9999999999999
  0
VERTEX
  8
Drawing
  6
BYLAYER
 62
256
 10
430
 20
-24.9999999999999
  0
VERTEX
  8
Drawing
  6
BYLAYER
 62
256
 10
430
 20
-42.9999999999999
  0
VERTEX
  8
Drawing
  6
BYLAYER
 62
256
 10
412
 20
-42.9999999999999
  0
VERTEX
  8
Drawing
  6
BYLAYER
 62
256
 10
412
 20
-24.9999999999999
  0
VERTEX
  8
Drawing
  6
BYLAYER
 62
256
 10
394
 20
-24.9999999999999
  0
VERTEX
  8
Drawing
  6
BYLAYER
 62
256
 10
394
 20
-42.9999999999999
  0
VERTEX
  8
Drawing
  6
BYLAYER
 62
256
 10
376
 20
-42.9999999999999
  0
VERTEX
  8
Drawing
  6
BYLAYER
 62
256
 10
376
 20
-24.9999999999999
  0
VERTEX
  8
Drawing
  6
BYLAYER
 62
256
 10
358
 20
-24.9999999999999
  0
VERTEX
  8
Drawing
  6
BYLAYER
 62
256
 10
358
 20
-45
  0
VERTEX
  8
Drawing
  6
BYLAYER
 62
256
 10
342
 20
-45
  0
VERTEX
  8
Drawing
  6
BYLAYER
 62
256
 10
342
 20
-24.9999999999999
  0
VERTEX
  8
Drawing
  6
BYLAYER
 62
256
 10
324
 20
-24.9999999999999
  0
VERTEX
  8
Drawing
  6
BYLAYER
 62
256
 10
324
 20
-42.9999999999999
  0
VERTEX
  8
Drawing
  6
BYLAYER
 62
256
 10
306
 20
-42.9999999999999
  0
VERTEX
  8
Drawing
  6
BYLAYER
 62
256
 10
306
 20
-24.9999999999999
  0
VERTEX
  8
Drawing
  6
BYLAYER
 62
256
 10
288
 20
-24.9999999999999
  0
VERTEX
  8
Drawing
  6
BYLAYER
 62
256
 10
288
 20
-42.9999999999999
  0
VERTEX
  8
Drawing
  6
BYLAYER
 62
256
 10
270
 20
-42.9999999999999
  0
VERTEX
  8
Drawing
  6
BYLAYER
 62
256
 10
270
 20
-24.9999999999999
  0
VERTEX
  8
Drawing
  6
BYLAYER
 62
256
 10
252
 20
-24.9999999999999
  0
VERTEX
  8
Drawing
  6
BYLAYER
 62
256
 10
252
 20
-42.9999999999999
  0
VERTEX
  8
Drawing
  6
BYLAYER
 62
256
 10
234
 20
-42.9999999999999
  0
VERTEX
  8
Drawing
  6
BYLAYER
 62
256
 10
234
 20
-24.9999999999999
  0
VERTEX
  8
Drawing
  6
BYLAYER
 62
256
 10
216
 20
-24.9999999999999
  0
VERTEX
  8
Drawing
  6
BYLAYER
 62
256
 10
216
 20
-42.9999999999999
  0
VERTEX
  8
Drawing
  6
BYLAYER
 62
256
 10
198
 20
-42.9999999999999
  0
VERTEX
  8
Drawing
  6
BYLAYER
 62
256
 10
198
 20
-24.9999999999999
  0
VERTEX
  8
Drawing
  6
BYLAYER
 62
256
 10
180
 20
-24.9999999999999
  0
VERTEX
  8
Drawing
  6
BYLAYER
 62
256
 10
180
 20
-42.9999999999999
  0
VERTEX
  8
Drawing
  6
BYLAYER
 62
256
 10
162
 20
-42.9999999999999
  0
VERTEX
  8
Drawing
  6
BYLAYER
 62
256
 10
162
 20
-24.9999999999999
  0
VERTEX
  8
Drawing
  6
BYLAYER
 62
256
 10
144
 20
-24.9999999999999
  0
VERTEX
  8
Drawing
  6
BYLAYER
 62
256
 10
144
 20
-42.9999999999999
  0
VERTEX
  8
Drawing
  6
BYLAYER
 62
256
 10
126
 20
-42.9999999999999
  0
VERTEX
  8
Drawing
  6
BYLAYER
 62
256
 10
126
 20
-24.9999999999999
  0
VERTEX
  8
Drawing
  6
BYLAYER
 62
256
 10
108
 20
-24.9999999999999
  0
VERTEX
  8
Drawing
  6
BYLAYER
 62
256
 10
108
 20
-42.9999999999999
  0
VERTEX
  8
Drawing
  6
BYLAYER
 62
256
 10
90
 20
-42.9999999999999
  0
VERTEX
  8
Drawing
  6
BYLAYER
 62
256
 10
90
 20
-24.9999999999999
  0
VERTEX
  8
Drawing
  6
BYLAYER
 62
256
 10
72
 20
-24.9999999999999
  0
VERTEX
  8
Drawing
  6
BYLAYER
 62
256
 10
72
 20
-45
  0
VERTEX
  8
Drawing
  6
BYLAYER
 62
256
 10
54
 20
-45
  0
VERTEX
  8
Drawing
  6
BYLAYER
 62
256
 10
54.0000000000001
 20
-24.9999999999999
  0
VERTEX
  8
Drawing
  6
BYLAYER
 62
256
 10
36.0000000000001
 20
-24.9999999999999
  0
VERTEX
  8
Drawing
  6
BYLAYER
 62
256
 10
36
 20
-42.9999999999991
  0
VERTEX
  8
Drawing
  6
BYLAYER
 62
256
 10
18
 20
-42.9999999999991
  0
VERTEX
  8
Drawing
  6
BYLAYER
 62
256
 10
17.9999999999999
 20
-72.4999999999992
  0
VERTEX
  8
Drawing
  6
BYLAYER
 62
256
 10
0.00000000000029
 20
-72.4999999999991
  0
SEQEND
  0
ENDSEC
  0
EOF
